<mxfile host="app.diagrams.net" modified="2024-02-29T03:51:24.132Z" agent="Mozilla/5.0 (Macintosh; Intel Mac OS X 10_15_7) AppleWebKit/537.36 (KHTML, like Gecko) Chrome/121.0.0.0 Safari/537.36" version="23.1.8" etag="e716LAYv6l-2ulyi9gvz" type="github">
  <diagram name="Page-1" id="Qy3Bw62D90H0ggDvBRJ5">
    <mxGraphModel>
      <root>
        <mxCell id="0" />
        <mxCell id="1" parent="0" />
      </root>
    </mxGraphModel>
  </diagram>
</mxfile>
